<?xml version="1.0" encoding="UTF-8"?>
<svg id="Layer_1" data-name="Layer 1" xmlns="http://www.w3.org/2000/svg" viewBox="0 0 304.98 310.81">
  <defs>
    <style>
      .cls-1 {
        fill: #4953a4;
      }

      .cls-2 {
        fill: #dea138;
      }

      .cls-3 {
        fill: #2a3892;
      }
    </style>
  </defs>
  <path class="cls-2" d="M155.85,268.39c5.01,2.28,4.73,5.2-.62,6.48L7.19,310.52c-5.35,1.29-8.38-1.96-6.75-7.21l25.84-83c1.63-5.25,7.07-7.68,12.07-5.41l117.5,53.48Z"/>
  <circle class="cls-2" cx="152.88" cy="152.1" r="152.1"/>
  <circle class="cls-1" cx="194.59" cy="101.23" r="35.99"/>
  <path class="cls-1" d="M178.6,142.5h31.99c11.04,0,20,8.96,20,20v48.27h-71.99v-48.27c0-11.04,8.96-20,20-20Z"/>
  <circle class="cls-3" cx="111.16" cy="129.42" r="35.99"/>
  <path class="cls-3" d="M95.17,170.68h31.99c11.04,0,20,8.96,20,20v48.27h-71.99v-48.27c0-11.04,8.96-20,20-20Z"/>
</svg>